<svg xmlns="http://www.w3.org/2000/svg" viewBox="0 0 180 180" role="img" aria-label="A hooded Jedi figure">
  <rect width="180" height="180" fill="#05070d"/>
  <circle cx="90" cy="90" r="70" fill="#102034"/>
  <circle cx="90" cy="90" r="52" fill="none" stroke="#37d5ff" stroke-width="2" opacity=".7"/>
  <path d="M56 142c5-42 19-68 34-68s29 26 34 68" fill="#2b3240" stroke="#ffcf5a" stroke-width="3"/>
  <path d="M60 86c6-30 21-48 30-48s24 18 30 48c-18-14-42-14-60 0Z" fill="#39455c" stroke="#37d5ff" stroke-width="3"/>
  <rect x="76" y="78" width="28" height="36" rx="13" fill="#d8c1a0"/>
  <circle cx="83" cy="93" r="3" fill="#05070d"/>
  <circle cx="97" cy="93" r="3" fill="#05070d"/>
  <path d="M33 151 142 42" stroke="#62e7ff" stroke-width="5" stroke-linecap="round"/>
  <path d="M33 151 142 42" stroke="#eaffff" stroke-width="2" stroke-linecap="round"/>
  <path d="M28 156h24" stroke="#252b36" stroke-width="8" stroke-linecap="round"/>
</svg>
